<svg version="1.1" id="Layer_1" xmlns="http://www.w3.org/2000/svg" xmlns:xlink="http://www.w3.org/1999/xlink" x="0px" y="0px" viewBox="0 0 168.7 46" style="enable-background:new 0 0 168.7 46;" xml:space="preserve">
 <style type="text/css">
  .st0{fill:#FFFFFF;}
 </style>
 <g id="Layer_2_1_">
  <g id="Layer_1-2">
   <path id="Path_8090" class="st0" d="M106.4,21.9l-0.6,2.7h15.9l0.7-2.7H106.4z M106.2,1.1h3l-4.6,18.8h-3L106.2,1.1z M100.1,25.9
			h3l-4.6,19h-3.1L100.1,25.9z M161,1.1h-38.5l-0.6,2.7h4.9l-9.4,38.4h-5.1l-0.6,2.6h40.1l3.3-13.7h-1.9
			c-4.4,8.9-8.7,11.3-16.9,11.2l-5.2-0.1l4.4-17.7c7-0.4,8.8,1,7.6,7.3h1.9l4.4-18h-1.9c-2.1,6.6-5.4,7.9-11.3,7.9l4.2-18.1h3
			c5.3,0,12.8,0,12.8,8.6h2.1L161,1.1z M73.2,24.6h5l-2.3,9.5c-1.3,5.5-3.3,9.8-9.5,9.5c-5.6-0.2-8.2-5.2-3.4-20.5
			c5-15.7,9.2-20.6,16.7-20.4c7.7,0.2,9.6,5,9.9,11.6h2.2l3-13.2h-2l-3.1,2.9c-1.5-1.3-3.7-3.7-10.8-4C64.5-0.4,50.5,10.9,48,24.2
			c-2,10.6,2.8,20.1,17.1,21.7c5.4,0.4,10.8-0.7,15.7-3.1l6.7-3.9l3.7-14.4h7.3l0.5-2.7H73.8L73.2,24.6z M15.3,23.1
			c3.1-12.6,5.6-20.4,13.3-20.2c7.6,0.2,6.5,7.6,3.4,20.2s-5.1,20.2-12.6,20.3C11.7,43.4,12,36.4,15.3,23.1 M0.4,23.1
			C-1.9,36.6,6.6,45.6,17.6,46c14.1,0.5,26.5-9.1,29.4-22.9C50,8.2,41.8,0,29,0C17.5,0,2.9,8.4,0.4,23.1">
   </path>
   <path id="Path_10632" class="st0" d="M165.2,2.7h0.7c0.4,0,0.7,0.1,0.7,0.5s-0.4,0.6-0.9,0.6h-0.5L165.2,2.7z M164.7,5.7h0.5V4.2
			h0.6l0.9,1.5h0.6l-0.9-1.5c0.2,0,0.5-0.1,0.6-0.3c0.2-0.2,0.3-0.4,0.2-0.7c0-0.7-0.4-1-1.2-1h-1.3L164.7,5.7z M163.4,4
			c0-1.3,1.1-2.4,2.4-2.4c1.3,0,2.4,1.1,2.4,2.4c0,1.3-1.1,2.4-2.4,2.4C164.5,6.4,163.4,5.3,163.4,4L163.4,4 M162.9,4
			c0,1.2,0.7,2.3,1.8,2.8c1.1,0.5,2.3,0.2,3.1-0.6c0.8-0.9,1.1-2.1,0.6-3.2c-0.4-1.1-1.5-1.8-2.7-1.8c-0.8,0-1.5,0.3-2,0.9
			C163.2,2.5,162.9,3.2,162.9,4">
   </path>
  </g>
 </g>
</svg>